<svg xmlns="http://www.w3.org/2000/svg" viewBox="0 0 32 32"><path fill="#326ce5" d="M15.97.594A3.1 3.1 0 0 0 14.6.9L3.6 6.2c-.85.36-1.5 1.1-1.78 2L-1.6 20.04c-.28.92-.14 1.92.36 2.74.1.16.22.32.35.46l7.6 9.46c.65.72 1.58 1.14 2.55 1.14h12.7c.97 0 1.9-.42 2.55-1.14l7.6-9.46c.65-.75.92-1.74.71-2.7L30.18 8.2a3.46 3.46 0 0 0-1.78-2L17.4.9a3.1 3.1 0 0 0-1.43-.306z"/><path fill="#fff" d="M16 4.5c-.9 0-1.62.72-1.62 1.62 0 .07 0 .14.02.21-1.15.5-2.05 1.4-2.57 2.55-.55.43-.88 1.08-.88 1.83 0 1.28 1.04 2.32 2.32 2.32.4 0 .77-.1 1.1-.28.45.8 1.2 1.4 2.1 1.7v7.06c-1.9.04-3.62.4-4.9 1-.5.23-.94.5-1.3.82-.5.45-.8 1-.8 1.66 0 .55.23 1.06.6 1.48.5.55 1.2.96 2.04 1.28 1.5.55 3.5.82 5.6.82s4.1-.27 5.6-.82c.84-.32 1.54-.73 2.04-1.28.37-.42.6-.93.6-1.48 0-.66-.3-1.2-.8-1.66-.36-.32-.8-.6-1.3-.82-1.28-.6-3-.96-4.9-1V14.5c.9-.3 1.65-.9 2.1-1.7.33.18.7.28 1.1.28 1.28 0 2.32-1.04 2.32-2.32 0-.75-.33-1.4-.88-1.83-.52-1.15-1.42-2.05-2.57-2.55.02-.07.02-.14.02-.21 0-.9-.72-1.62-1.62-1.62z"/></svg>
